<svg width="482" height="375" viewBox="0 0 482 375" fill="none" xmlns="http://www.w3.org/2000/svg">
<path d="M178.317 136.334C178.317 136.334 161.717 133.387 157.067 145.003C152.417 156.619 157.067 196.736 157.067 196.736L219 241L178.317 136.334Z" fill="#3F3D56"/>
<path d="M256.202 313.727L231.647 320.735C228.079 321.744 224.337 319.783 223.275 316.349C222.228 312.911 224.262 309.303 227.825 308.28L252.347 301.266C255.912 300.256 259.654 302.213 260.719 305.645C261.777 309.078 259.758 312.69 256.202 313.727Z" fill="#2BD0D0"/>
<circle cx="255" cy="329" r="11" fill="#25233A"/>
<circle cx="253.5" cy="331.5" r="5.5" fill="#3F3D56"/>
<circle cx="210" cy="318" r="11" fill="#25233A"/>
<path d="M214 318.5C214 321.538 211.538 324 208.5 324C205.462 324 203 321.538 203 318.5C203 315.462 205.462 313 208.5 313C211.538 313 214 315.462 214 318.5Z" fill="url(#paint0_linear_0_803)"/>
<circle cx="207" cy="333" r="11" fill="#25233A"/>
<path d="M216 333.5C216 336.538 213.538 339 210.5 339C207.462 339 205 336.538 205 333.5C205 330.462 207.462 328 210.5 328C213.538 328 216 330.462 216 333.5Z" fill="#3F3D56"/>
<path d="M257.085 324.874L206.298 314.828C202.724 314.111 200.414 310.698 201.13 307.192C201.862 303.692 205.341 301.428 208.915 302.126L259.702 312.153C263.276 312.87 265.586 316.284 264.87 319.79C264.147 323.297 260.666 325.571 257.085 324.874Z" fill="#2BD0D0"/>
<path d="M226 244H240V302.999C240 306.866 236.867 310 233.003 310C229.139 310 226.007 306.866 226.007 302.999V244H226Z" fill="#2BD0D0"/>
<path d="M231.187 320.708L206.65 327.733C203.082 328.747 199.336 326.784 198.275 323.345C197.228 319.904 199.262 316.295 202.823 315.271L227.36 308.266C230.924 307.255 234.664 309.214 235.728 312.647C236.767 316.082 234.739 319.681 231.187 320.708Z" fill="#2BD0D0"/>
<path d="M236 320.26L232.875 320.811C231.943 320.974 230.968 321.033 230 320.983L231.305 320.755C232.212 320.598 233.063 320.342 233.812 320L236 320.26Z" fill="url(#paint1_linear_0_803)"/>
<path d="M261 306.738C260.999 308.293 260.483 309.799 259.54 311L239 306.65C239.517 305.913 239.89 305.077 240.098 304.188L252.752 300.265C254.398 299.768 256.165 299.976 257.665 300.844C259.165 301.711 260.274 303.168 260.748 304.892C260.912 305.492 260.997 306.114 261 306.738Z" fill="url(#paint2_linear_0_803)"/>
<path opacity="0.31" d="M225.221 305.103C225.074 304.585 225 304.055 225 303.523V245H230.943V308.071C230.884 308.38 230.904 308.697 231 309C230.1 308.685 229.135 308.511 228.155 308.489C227.464 308.449 226.77 308.449 226.079 308.489L226.504 308.389C226.766 308.349 225.564 306.298 225.221 305.103Z" fill="url(#paint3_linear_0_803)"/>
<path opacity="0.31" d="M262.289 323.8C261.319 324.323 260.228 324.597 259.119 324.596C258.673 324.595 258.228 324.552 257.79 324.467L235.382 320.06L233.515 319.697C232.878 320.175 232.154 320.533 231.382 320.752L230.272 321.069L207.247 327.735C203.733 328.742 200.045 326.792 199 323.373C200.997 325.178 204.029 325.346 206.223 323.774C209.034 321.878 220.225 319.031 226.564 317.517C229.56 316.819 231.852 314.468 232.412 311.518C232.428 311.344 232.454 311.171 232.492 311C233.548 312.113 235.489 313.362 238.997 314.423C247.636 317.012 261.664 318.727 261.664 318.727C261.664 318.727 264.196 321.147 262.289 323.8Z" fill="url(#paint4_linear_0_803)"/>
<path d="M264 322C263.472 322.778 262.793 323.456 262 324C262.538 323.479 263.229 322.785 264 322Z" fill="url(#paint5_linear_0_803)"/>
<path d="M226.299 304.559C226.577 305.729 227.163 306.809 228 307.688C227.791 307.728 227.575 307.781 227.359 307.84L206.088 314C202.817 313.187 200.662 310.135 201.044 306.854C201.425 303.574 204.225 301.073 207.6 301C208.053 301.001 208.505 301.045 208.949 301.132L226.299 304.559Z" fill="url(#paint6_linear_0_803)"/>
<path d="M259 23.4074C259 23.4074 258.724 2.60206 241.925 4.39608C225.126 6.19011 226.414 -0.698147 219.238 0.0582894C212.063 0.814725 203.727 7.84355 206.121 16.5258C208.516 25.2081 199.789 27.1494 194.057 33.7364C188.324 40.3234 195.406 45.7122 205.063 52.152C214.72 58.5917 204.463 56.9249 210.188 67.1066C215.914 77.2884 235.295 64.2817 235.295 64.2817L259 23.4074Z" fill="#503164"/>
<path d="M122.664 368.601L134.393 369V275.255C134.393 275.255 134.984 251.014 157.846 248.582C180.707 246.151 388.042 216.116 388.042 216.116C388.042 216.116 396.26 215.246 400.993 231.017C405.726 246.788 410.333 308.804 410.333 308.804L473.973 317.381C473.973 317.381 475.652 207.832 452.671 201.786C429.69 195.741 129.149 226.546 129.149 226.546C129.149 226.546 106.858 342.898 122.664 368.601Z" fill="#2BD0D0"/>
<path opacity="0.197289" d="M122.664 368.601L134.393 369V275.255C134.393 275.255 134.984 251.014 157.846 248.582C180.707 246.151 388.042 216.116 388.042 216.116C388.042 216.116 396.26 215.246 400.993 231.017C405.726 246.788 410.333 308.804 410.333 308.804L473.973 317.381C473.973 317.381 475.652 207.832 452.671 201.786C429.69 195.741 129.149 226.546 129.149 226.546C129.149 226.546 106.858 342.898 122.664 368.601Z" fill="url(#paint7_linear_0_803)"/>
<path d="M62 237.784C62 237.784 67.744 206.028 108.144 197.705L393.327 165.062C393.327 165.062 421.323 163.902 434.131 171.649C446.939 179.395 465.219 185.817 472.714 220.872C480.209 255.928 482 315.814 482 315.814L474.91 316.914C474.91 316.914 464.562 208.474 453.599 201.608C442.635 194.743 146.196 236.863 146.196 236.863C146.196 236.863 125.635 240.951 123.844 271.395C122.053 301.838 123.844 368 123.844 368L62 343.057V237.784Z" fill="#2BD0D0"/>
<path opacity="0.19" d="M355.425 177.844C340.663 175.944 325.781 174.568 310.906 175.125C299.727 175.557 288.62 177.09 277.534 178.617L179.759 192.12C178.1 192.349 176.209 192.723 175.38 194.164C173.787 196.916 177.529 199.628 180.561 200.676C213.071 211.932 247.804 223.332 281.269 215.306C296.569 211.637 310.78 204.018 326.299 201.371C341.817 198.724 357.747 201.161 373.232 198.665C387.789 196.32 401.649 189.656 416.404 189.591C420.929 189.591 425.587 190.168 429.879 188.752C434.172 187.337 437.967 183.013 436.779 178.702C422.926 178.224 407.375 175.695 393.787 178.44C380.338 181.152 368.893 177.844 355.425 177.844Z" fill="url(#paint8_linear_0_803)"/>
<path d="M267 193.38L267.57 195.494C267.57 195.494 284.451 205.667 284.345 205.995C284.239 206.323 354.369 189.756 354.369 189.756L356 185L267 193.38Z" fill="#2BD0D0"/>
<path d="M267 193.38L267.57 195.494C267.57 195.494 284.451 205.667 284.345 205.995C284.239 206.323 354.369 189.756 354.369 189.756L356 185L267 193.38Z" fill="url(#paint9_linear_0_803)"/>
<path d="M268 193.364L330.107 180L356 185.054L285.442 202L268 193.364Z" fill="#2BD0D0"/>
<path d="M268 193.364L330.107 180L356 185.054L285.442 202L268 193.364Z" fill="url(#paint10_linear_0_803)"/>
<path d="M247.832 204.484L262.289 204.996C262.289 204.996 265.961 205.224 266.91 202.279C267.859 199.334 261.02 193.119 260.287 193.002C259.554 192.884 240.528 198.221 243.27 203.558L247.832 204.484Z" fill="#2BD0D0"/>
<path d="M247.832 204.484L262.289 204.996C262.289 204.996 265.961 205.224 266.91 202.279C267.859 199.334 261.02 193.119 260.287 193.002C259.554 192.884 240.528 198.221 243.27 203.558L247.832 204.484Z" fill="url(#paint11_linear_0_803)"/>
<path d="M79 350.056L71.9416 371.733C51.4688 379.084 34.0624 371.733 34.0624 371.733L29 349C29 349 54.5351 357.56 79 350.056Z" fill="#2BD0D0"/>
<path d="M79 350.056L71.9416 371.733C51.4688 379.084 34.0624 371.733 34.0624 371.733L29 349C29 349 54.5351 357.56 79 350.056Z" fill="url(#paint12_linear_0_803)"/>
<path d="M87 330L84.7159 346.943L78.9296 349.951C54.2815 357.372 28.5146 348.913 28.5146 348.913L24.0722 345.63L22 330H87Z" fill="#2BD0D0"/>
<path d="M87 330L84.7159 346.943L78.9296 349.951C54.2815 357.372 28.5146 348.913 28.5146 348.913L24.0722 345.63L22 330H87Z" fill="url(#paint13_linear_0_803)"/>
<ellipse cx="54.5" cy="329" rx="32.5" ry="6" fill="#2BD0D0"/>
<ellipse cx="54.5" cy="329" rx="32.5" ry="6" fill="url(#paint14_linear_0_803)"/>
<path d="M39.6413 199.03C36.4587 197.515 33.0383 196.372 30.2849 194.159C24.7383 189.661 23.3319 181.912 21.5953 174.962C19.8587 168.011 16.4978 160.369 9.65051 158.375C7.08854 157.638 4.08418 157.93 2.1363 159.764C0.0827689 161.698 -0.33322 164.874 0.228035 167.679C0.789289 170.483 2.15611 172.995 3.21259 175.653C5.67965 181.826 6.43061 188.559 5.38497 195.13C4.51998 200.519 2.45324 205.981 3.78045 211.264C6.03207 220.228 17.2506 225.485 17.5609 234.721C17.7722 240.954 12.6747 246.722 13.8302 252.856C14.682 257.394 18.8353 260.936 19.0598 265.548C19.3107 270.778 14.3981 275.203 14.6358 280.433C14.8735 285.663 20.0634 289.158 23.4508 293.272C26.2905 296.726 27.979 300.992 28.2776 305.465C28.4558 308.256 28.0993 311.147 29.0039 313.792C29.6642 315.725 30.9848 317.367 32.0082 319.108C33.1374 320.988 33.9891 323.022 35.3494 324.763C38.8482 329.201 44.6824 331.044 50.074 329.414C51.1239 322.464 50.2061 315.373 50.4966 308.349C51.0711 294.74 56.1884 281.025 52.9133 267.814C51.7116 262.97 49.4005 258.371 48.9911 253.401C48.628 248.962 49.8033 244.563 50.6221 240.184C52.3124 231.14 52.286 221.79 51.5927 212.646C51.0447 205.39 45.9736 202.047 39.6413 199.03Z" fill="#2BD0D0"/>
<path d="M59.7518 234.767C59.6986 240.829 61.0819 247.096 59.14 252.852C57.6703 257.214 54.4382 260.786 52.769 265.075C48.9184 274.974 54.099 286.075 53.0416 296.644C52.6027 300.999 51.1064 305.182 50.162 309.458C48.9892 314.871 48.7017 320.438 49.3108 325.943C49.1819 328.015 50.5994 329.865 52.636 330.285C55.8944 331.526 59.2699 332.435 62.7112 333C61.5478 326.591 62.7731 319.979 66.1561 314.41C71.4298 305.78 81.6779 299.964 83.5866 290.051C84.8767 283.339 81.8708 276.527 82.0836 269.696C82.2368 265.15 83.8034 260.765 86.5659 257.148C89.0465 253.921 92.4049 251.425 94.7126 248.079C100.259 240.012 98.5298 229.23 96.8806 219.584C95.2313 209.937 94.2736 198.836 100.791 191.527C102.853 189.216 105.539 187.483 107.408 185.014C111.571 179.51 110.52 171.031 105.679 166.112C100.838 161.192 93.0433 159.831 86.4595 161.996C83.6823 162.813 81.2311 164.477 79.4501 166.756C76.1249 171.47 77.455 177.91 78.8648 183.513C80.0951 188.38 81.086 193.996 79.4035 198.903C78.1466 202.554 74.9611 204.533 72.2544 207.075C64.5031 214.235 59.9917 224.227 59.7518 234.767Z" fill="#2BD0D0"/>
<path d="M53.0622 288.522C52.1243 295.115 50.7703 301.761 50.4929 308.373V309.038C50.478 309.202 50.4402 309.363 50.3806 309.517C49.209 314.934 48.9168 320.507 49.5153 326.018C49.5508 326.911 49.776 327.786 50.1758 328.584C50.1428 328.863 50.1031 329.135 50.0635 329.414C44.6702 331.044 38.8341 329.201 35.3342 324.762C34.0131 323.021 33.1215 320.987 31.992 319.107C30.9352 317.359 29.6472 315.717 28.9867 313.79C28.0818 311.132 28.4384 308.254 28.2601 305.463C27.9615 300.989 26.2724 296.722 23.4318 293.267C20.0434 289.18 14.8452 285.751 14.614 280.434C14.3828 275.117 19.2904 270.778 19.0394 265.547C18.8148 260.935 14.6602 257.393 13.8082 252.854C12.6523 246.719 17.7712 240.951 17.5401 234.717C17.2296 225.479 6.00756 220.222 3.75523 211.257C2.43421 205.973 4.495 200.51 5.36026 195.121C6.41093 188.558 5.66893 181.832 3.21361 175.661C2.15679 173.003 0.78954 170.498 0.228107 167.686C-0.333326 164.875 0.0827951 161.705 2.13698 159.764C4.11851 157.93 7.0908 157.638 9.65357 158.375C16.5097 160.369 19.8584 168.039 21.6022 174.99C23.3459 181.942 24.7462 189.684 30.2945 194.19C33.0356 196.417 36.4702 197.546 39.6539 199.062C45.9948 202.079 51.0675 205.422 51.6091 212.613C52.2696 221.757 52.3291 231.108 50.6382 240.153C49.8191 244.533 48.6566 248.932 49.0067 253.372C49.3568 257.811 51.2789 262.012 52.5338 266.318C52.6725 266.803 52.8112 267.295 52.9301 267.787C54.5946 274.626 54.0596 281.544 53.0622 288.522Z" fill="#30C59B"/>
<path d="M49.7185 328C49.421 327.229 49.2496 326.38 49.2157 325.512C48.7851 320.152 49.0001 314.733 49.8525 309.465C49.8765 309.31 49.9052 309.155 49.9339 309C49.7616 315.346 50.3074 321.744 49.7185 328Z" fill="url(#paint15_linear_0_803)"/>
<path d="M107.393 185.014C105.522 187.483 102.831 189.216 100.766 191.527C94.2387 198.83 95.1978 209.937 96.8496 219.584C98.5014 229.23 100.233 240.012 94.6783 248.079C92.3671 251.398 89.0035 253.921 86.5191 257.148C83.7523 260.765 82.1834 265.15 82.0299 269.696C81.8168 276.527 84.8274 283.339 83.5352 290.051C81.6236 299.964 71.3598 305.793 66.078 314.41C62.7025 319.984 61.4851 326.595 62.6545 333C59.2166 332.435 55.8447 331.526 52.5904 330.285C51.7003 330.021 50.893 329.534 50.2459 328.87C50.1541 328.763 50.0717 328.647 49.9995 328.525C49.5866 327.735 49.3482 326.866 49.3001 325.976C48.701 320.469 49.0002 314.902 50.186 309.491C50.2193 309.331 50.2592 309.172 50.2992 309.013C51.245 304.903 52.6437 300.873 53.07 296.677C53.2966 293.957 53.243 291.221 52.9101 288.511C53.9159 281.54 54.4554 274.629 52.7569 267.843C52.637 267.352 52.4972 266.861 52.3573 266.376C52.4839 265.951 52.6304 265.526 52.7969 265.108C54.4687 260.819 57.7057 257.247 59.1777 252.885C61.1159 247.129 59.7372 240.862 59.7904 234.8C59.877 224.331 64.6127 214.219 72.219 207.075C74.9298 204.533 78.1202 202.554 79.3791 198.903C81.0642 193.996 80.0451 188.38 78.8395 183.513C77.4209 177.91 76.0754 171.47 79.4257 166.756C81.0908 164.419 83.715 162.899 86.4459 161.996C93.0131 159.831 100.853 161.192 105.695 166.112C110.537 171.031 111.563 179.543 107.393 185.014Z" fill="#30C59B"/>
<path d="M225.573 80.1462C225.573 80.1462 197.756 84.4465 184.889 115.123C172.022 145.8 178.713 183.806 178.938 187.15C179.163 190.494 218.366 205 229.573 205C240.781 205 243.115 193.771 243.115 193.771L223.312 185.338L283.482 178.389H294.286L288.335 188.421C288.335 188.421 300.078 189.652 307.927 189.932C315.775 190.213 321.105 174.691 321.984 166.973C322.863 159.256 287.317 91.5154 282.007 87.5028C276.698 83.4901 262.29 73.6859 225.573 80.1462Z" fill="#2BD0D0"/>
<path d="M258.392 22.7763C258.392 22.7763 263.424 25.6061 262.971 34.7613C262.519 43.9165 259.682 57.6926 256.819 61.2614C253.955 64.8303 243.94 66.2285 243.94 66.2285C243.94 66.2285 249.403 79.2056 253.469 82.5547C257.535 85.9039 249.383 98.2418 241.454 94.1935C233.526 90.1452 224.334 79.978 224.334 79.978C224.334 79.978 230.946 67.7333 228.71 61.2881C226.475 54.8428 217.938 32.2245 224.334 26.0455C230.73 19.8666 244.52 11.011 258.392 22.7763Z" fill="url(#paint16_linear_0_803)"/>
<path opacity="0.25" d="M214.334 124L210 178.055L223.238 185L234 183.122L220.572 166.618L214.334 124Z" fill="white"/>
<path opacity="0.25" d="M284 121C284 121 301.909 163.077 293.97 178L287.854 176.839L284 121Z" fill="white"/>
<path d="M235.522 192.045C235.522 192.045 228.756 197.82 231.776 202.312C234.796 206.803 238.401 206.675 241.407 204.667C244.413 202.658 250.318 197.891 257.353 200.079C264.388 202.267 266.097 203.659 266.097 203.659C266.097 203.659 269.802 201.343 268.841 199.02C267.879 196.697 260.521 189.171 258.389 188.195C256.257 187.22 247.406 190.216 247.406 190.216C247.406 190.216 240.903 188.458 235.522 192.045Z" fill="url(#paint17_linear_0_803)"/>
<path d="M295.191 179.598C295.191 179.598 288.806 180.357 287.193 184.555C285.58 188.753 285 189.264 285 189.264C285 189.264 288.606 189.955 290.106 188.001C291.605 186.047 293.165 186.868 293.165 186.868L292.718 189.375C292.718 189.375 302.516 190.852 306.942 189.264C311.367 187.676 313.267 185.812 313.267 185.812L315 181.572C315 181.572 310.821 178.541 307.668 178.072C304.516 177.602 295.191 179.598 295.191 179.598Z" fill="url(#paint18_linear_0_803)"/>
<path d="M328.893 224C328.893 224 350.827 240.687 348.877 263.259C346.928 285.831 344.064 319.346 344.064 319.346C344.064 319.346 335.218 323.068 329.357 319.346C323.495 315.624 319.946 264.697 317.042 259.833C314.138 254.969 296.667 233.042 278 231.154L328.893 224Z" fill="#25233A"/>
<path d="M219 240.058C219 240.058 229.444 249.953 248.062 253.06C266.681 256.167 275.359 258.76 281.049 274.665C286.739 290.57 292.197 324.802 293.984 328.628C295.77 332.454 303.366 330.502 303.366 330.502C303.366 330.502 307.662 325.607 307.662 298.388C307.662 260.442 310.317 252.664 300.749 243.132C291.181 233.599 282.477 231 282.477 231L219 240.058Z" fill="#3F3D56"/>
<path d="M294 330L295.82 344.197H299.228C299.228 344.197 321.176 345.384 321.864 344.872C322.552 344.359 320.807 333.629 312.492 333.932C304.176 334.236 303.631 331.909 303.631 331.909L294 330Z" fill="#25233A"/>
<path d="M331 320.156L334.518 334L372.955 328.788C372.955 328.788 374.308 319.695 362.132 320.597C358.918 320.831 356.524 323.062 352.661 323.082C348.798 323.102 345.098 321.539 343.15 319L331 320.156Z" fill="#25233A"/>
<path d="M461.804 146.337L319.561 153.991C316.121 154.172 313.185 151.52 313 148.065C313 147.958 313 147.845 313 147.739V46.4729C313.003 42.372 316.267 39.0249 320.348 38.9382L462.009 36.0014C463.827 35.9641 465.584 36.6537 466.895 37.9185C468.206 39.1833 468.964 40.9197 469 42.7454V138.716C468.995 142.772 465.836 146.118 461.804 146.337Z" fill="#2BD0D0"/>
<path d="M469.804 146.337L327.555 153.992C324.115 154.169 321.182 151.514 321 148.058C321 147.952 321 147.846 321 147.739V46.4727C320.996 42.3715 324.26 39.0213 328.342 38.938L470.022 36.0012C473.799 35.9308 476.92 38.9445 477 42.7386V138.716C476.995 142.773 473.836 146.119 469.804 146.337Z" fill="#2BD0D0"/>
<path d="M469.804 146.337L327.555 153.992C324.115 154.169 321.182 151.514 321 148.058C321 147.952 321 147.846 321 147.739V46.4727C320.996 42.3715 324.26 39.0213 328.342 38.938L470.022 36.0012C473.799 35.9308 476.92 38.9445 477 42.7386V138.716C476.995 142.773 473.836 146.119 469.804 146.337Z" fill="url(#paint19_linear_0_803)"/>
<path d="M427.773 185.138L391.478 189C391.478 189 380.425 186.77 381.023 185.138C381.622 183.505 393.179 181.933 393.179 181.933V116.129C393.08 115.983 391.558 114.045 387.39 112.81C386.583 112.571 385.762 112.38 384.931 112.24C384.217 112.135 383.523 111.925 382.871 111.616C380.392 110.335 383.13 108.105 386.978 108.006C387.581 107.985 388.184 108.02 388.78 108.112H416.693C416.693 108.112 427.261 111.085 427.773 125.923C428.284 140.762 427.773 185.138 427.773 185.138Z" fill="#3A3054"/>
<path d="M398 185.277L391.322 189C391.322 189 380.434 186.77 381.023 185.137C381.612 183.505 393.018 181.932 393.018 181.932V116.123C392.88 115.971 391.211 114.225 387.315 112.805C385.865 112.288 384.376 111.888 382.863 111.61C380.421 110.329 383.118 108.1 386.909 108C390.137 108.445 396.494 112.028 396.907 114.073C397.319 116.117 398 185.277 398 185.277Z" fill="#51466B"/>
<path d="M263 323C262.119 324.001 261.709 324.371 262.23 323.547C262.5 323.388 262.757 323.205 263 323Z" fill="url(#paint20_linear_0_803)"/>
<defs>
<linearGradient id="paint0_linear_0_803" x1="203" y1="324" x2="214" y2="324" gradientUnits="userSpaceOnUse">
<stop stop-color="#183866"/>
<stop offset="1" stop-color="#1A7FC1"/>
</linearGradient>
<linearGradient id="paint1_linear_0_803" x1="229.992" y1="321.001" x2="236" y2="321.001" gradientUnits="userSpaceOnUse">
<stop/>
<stop offset="0.99" stop-opacity="0.01"/>
</linearGradient>
<linearGradient id="paint2_linear_0_803" x1="263.916" y1="41.8313" x2="276.23" y2="64.8656" gradientUnits="userSpaceOnUse">
<stop/>
<stop offset="0.99" stop-opacity="0.01"/>
</linearGradient>
<linearGradient id="paint3_linear_0_803" x1="289.529" y1="-162.56" x2="244.041" y2="-162.669" gradientUnits="userSpaceOnUse">
<stop/>
<stop offset="0.99" stop-opacity="0.01"/>
</linearGradient>
<linearGradient id="paint4_linear_0_803" x1="357.142" y1="33.9992" x2="346.535" y2="-15.1065" gradientUnits="userSpaceOnUse">
<stop/>
<stop offset="0.99" stop-opacity="0.01"/>
</linearGradient>
<linearGradient id="paint5_linear_0_803" x1="309.847" y1="-11.6821" x2="305.879" y2="-12.9349" gradientUnits="userSpaceOnUse">
<stop/>
<stop offset="0.99" stop-opacity="0.01"/>
</linearGradient>
<linearGradient id="paint6_linear_0_803" x1="258.106" y1="33.5083" x2="241.633" y2="52.4004" gradientUnits="userSpaceOnUse">
<stop/>
<stop offset="0.99" stop-opacity="0.01"/>
</linearGradient>
<linearGradient id="paint7_linear_0_803" x1="524.505" y1="-43.4512" x2="33.0621" y2="-150.28" gradientUnits="userSpaceOnUse">
<stop/>
<stop offset="1" stop-opacity="0.01"/>
</linearGradient>
<linearGradient id="paint8_linear_0_803" x1="212.123" y1="178.726" x2="474.119" y2="178.726" gradientUnits="userSpaceOnUse">
<stop stop-color="#183866"/>
<stop offset="1" stop-color="#1A7FC1"/>
</linearGradient>
<linearGradient id="paint9_linear_0_803" x1="75.4557" y1="159.212" x2="76.9992" y2="266.94" gradientUnits="userSpaceOnUse">
<stop/>
<stop offset="0.99" stop-opacity="0.01"/>
</linearGradient>
<linearGradient id="paint10_linear_0_803" x1="197.154" y1="184.814" x2="206.217" y2="231.211" gradientUnits="userSpaceOnUse">
<stop/>
<stop offset="0.99" stop-opacity="0.01"/>
</linearGradient>
<linearGradient id="paint11_linear_0_803" x1="237.493" y1="194.691" x2="236.892" y2="213.145" gradientUnits="userSpaceOnUse">
<stop/>
<stop offset="0.99" stop-opacity="0.01"/>
</linearGradient>
<linearGradient id="paint12_linear_0_803" x1="126.11" y1="-18.0464" x2="82.3712" y2="-24.2906" gradientUnits="userSpaceOnUse">
<stop/>
<stop offset="0.99" stop-opacity="0.01"/>
</linearGradient>
<linearGradient id="paint13_linear_0_803" x1="133.367" y1="11.1729" x2="98.5351" y2="1.66416" gradientUnits="userSpaceOnUse">
<stop/>
<stop offset="0.99" stop-opacity="0.01"/>
</linearGradient>
<linearGradient id="paint14_linear_0_803" x1="-192.124" y1="304.797" x2="-192.764" y2="397.661" gradientUnits="userSpaceOnUse">
<stop/>
<stop offset="0.99" stop-opacity="0.01"/>
</linearGradient>
<linearGradient id="paint15_linear_0_803" x1="78.2068" y1="-1.27162" x2="74.684" y2="-1.21152" gradientUnits="userSpaceOnUse">
<stop/>
<stop offset="0.99" stop-opacity="0.01"/>
</linearGradient>
<linearGradient id="paint16_linear_0_803" x1="221.984" y1="95.0086" x2="262.998" y2="95.0086" gradientUnits="userSpaceOnUse">
<stop stop-color="#ECC4D7"/>
<stop offset="0.42" stop-color="#EFD4D1"/>
<stop offset="1" stop-color="#F2EAC9"/>
</linearGradient>
<linearGradient id="paint17_linear_0_803" x1="268.632" y1="167.608" x2="306.631" y2="167.608" gradientUnits="userSpaceOnUse">
<stop stop-color="#ECC4D7"/>
<stop offset="0.42" stop-color="#EFD4D1"/>
<stop offset="1" stop-color="#F2EAC9"/>
</linearGradient>
<linearGradient id="paint18_linear_0_803" x1="322.292" y1="173.852" x2="352.292" y2="173.852" gradientUnits="userSpaceOnUse">
<stop stop-color="#ECC4D7"/>
<stop offset="0.42" stop-color="#EFD4D1"/>
<stop offset="1" stop-color="#F2EAC9"/>
</linearGradient>
<linearGradient id="paint19_linear_0_803" x1="450.177" y1="137.011" x2="326.849" y2="280.362" gradientUnits="userSpaceOnUse">
<stop stop-color="#362958" stop-opacity="0.500601"/>
<stop offset="1" stop-color="#34313D" stop-opacity="0.01"/>
</linearGradient>
<linearGradient id="paint20_linear_0_803" x1="302.125" y1="-19.8348" x2="300.959" y2="-20.2661" gradientUnits="userSpaceOnUse">
<stop/>
<stop offset="0.99" stop-opacity="0.01"/>
</linearGradient>
</defs>
</svg>
